<svg width="23" height="23" viewBox="0 0 23 23" fill="none" xmlns="http://www.w3.org/2000/svg">
<g filter="url(#filter0_d_1040_26400)">
<path fill-rule="evenodd" clip-rule="evenodd" d="M18.1477 3.89775L11.3977 10.6477C11.2923 10.7532 11.1492 10.8125 11 10.8125H8.75C8.43934 10.8125 8.1875 10.5607 8.1875 10.25V8C8.1875 7.85082 8.24676 7.70774 8.35225 7.60225L15.1023 0.852252C15.2077 0.746763 15.3508 0.6875 15.5 0.6875C15.6492 0.6875 15.7923 0.746763 15.8977 0.852252L18.1477 3.10225C18.3674 3.32192 18.3674 3.67808 18.1477 3.89775ZM15.5 2.04549L16.9545 3.5L10.767 9.6875H9.3125V8.233L15.5 2.04549Z" fill="#999999"/>
<path d="M15.6646 5.58507C15.7701 5.69056 15.9133 5.75 16.0625 5.75C16.0722 5.75 16.0819 5.74975 16.0916 5.74925C16.2305 5.74205 16.3619 5.68362 16.4602 5.58525C16.5657 5.47976 16.625 5.33668 16.625 5.1875C16.625 5.03832 16.5657 4.89524 16.4602 4.78975L14.2102 2.53975C14.1048 2.43426 13.9617 2.375 13.8125 2.375C13.6633 2.375 13.5202 2.43426 13.4148 2.53975C13.3093 2.64524 13.25 2.78832 13.25 2.9375C13.25 3.08668 13.3093 3.22976 13.4148 3.33525L15.6646 5.58507Z" fill="#999999"/>
<path d="M5.375 2.375H11.5625C11.8732 2.375 12.125 2.12316 12.125 1.8125C12.125 1.50184 11.8732 1.25 11.5625 1.25H5.375C4.90901 1.25 4.5795 1.57951 4.5795 1.57951C4.25 1.90901 4.25 2.375 4.25 2.375V13.625C4.25 14.091 4.57951 14.4205 4.57951 14.4205C4.90901 14.75 5.375 14.75 5.375 14.75H16.625C17.091 14.75 17.4205 14.4205 17.4205 14.4205C17.75 14.091 17.75 13.625 17.75 13.625V7.4375C17.75 7.12684 17.4982 6.875 17.1875 6.875C16.8768 6.875 16.625 7.12684 16.625 7.4375V13.625H5.375V2.375Z" fill="#999999"/>
</g>
<defs>
<filter id="filter0_d_1040_26400" x="0.25" y="0.6875" width="22.0625" height="22.0625" filterUnits="userSpaceOnUse" color-interpolation-filters="sRGB">
<feFlood flood-opacity="0" result="BackgroundImageFix"/>
<feColorMatrix in="SourceAlpha" type="matrix" values="0 0 0 0 0 0 0 0 0 0 0 0 0 0 0 0 0 0 127 0" result="hardAlpha"/>
<feOffset dy="4"/>
<feGaussianBlur stdDeviation="2"/>
<feComposite in2="hardAlpha" operator="out"/>
<feColorMatrix type="matrix" values="0 0 0 0 0 0 0 0 0 0 0 0 0 0 0 0 0 0 0.25 0"/>
<feBlend mode="normal" in2="BackgroundImageFix" result="effect1_dropShadow_1040_26400"/>
<feBlend mode="normal" in="SourceGraphic" in2="effect1_dropShadow_1040_26400" result="shape"/>
</filter>
</defs>
</svg>
