<svg width="17" height="14" viewBox="0 0 17 14" fill="none" xmlns="http://www.w3.org/2000/svg">
<path d="M8.5 5.375C7.1744 5.375 6.1 6.467 6.1 7.8125C6.1 9.158 7.1744 10.25 8.5 10.25C9.8248 10.25 10.9 9.158 10.9 7.8125C10.9 6.467 9.8248 5.375 8.5 5.375ZM14.9 2.9375H12.98C12.716 2.9375 12.4312 2.7295 12.3488 2.47437L11.852 0.962313C11.768 0.708 11.4848 0.5 11.22 0.5H5.78C5.516 0.5 5.2312 0.708 5.1488 0.9615L4.6512 2.47437C4.568 2.7295 4.284 2.9375 4.02 2.9375H2.1C1.22 2.9375 0.5 3.66875 0.5 4.5625V11.875C0.5 12.7688 1.22 13.5 2.1 13.5H14.9C15.78 13.5 16.5 12.7688 16.5 11.875V4.5625C16.5 3.66875 15.78 2.9375 14.9 2.9375ZM8.5 11.875C6.2904 11.875 4.5 10.0566 4.5 7.8125C4.5 5.56837 6.2904 3.75 8.5 3.75C10.7088 3.75 12.5 5.56837 12.5 7.8125C12.5 10.0566 10.7088 11.875 8.5 11.875ZM14.5 5.5375C14.1904 5.5375 13.94 5.28238 13.94 4.96794C13.94 4.65513 14.1904 4.39919 14.5 4.39919C14.8096 4.39919 15.06 4.65431 15.06 4.96794C15.06 5.28238 14.8096 5.5375 14.5 5.5375Z" fill="#3F434A"/>
</svg>
