<svg width="32" height="26" viewBox="0 0 32 26" fill="none" xmlns="http://www.w3.org/2000/svg">
<path fill-rule="evenodd" clip-rule="evenodd" d="M4.2002 3.68735C4.2002 3.68735 4.2002 3.0216 4.68084 2.55084C4.68084 2.55084 5.16149 2.08008 5.84122 2.08008H23.8925C23.8925 2.08008 24.5722 2.08008 25.0529 2.55084C25.0529 2.55084 25.5335 3.02159 25.5335 3.68735V18.1528C25.5335 18.1528 25.5335 18.8186 25.0529 19.2893C25.0529 19.2893 24.5722 19.7601 23.8925 19.7601H5.84122C5.84122 19.7601 5.16148 19.7601 4.68084 19.2893C4.68084 19.2893 4.2002 18.8186 4.2002 18.1528V3.68735ZM5.84122 3.68735V18.1528H23.8925V3.68735H5.84122Z" fill="#0AC7E4"/>
<path d="M19.7944 12.8645L24.1328 17.1137C24.2867 17.2644 24.4954 17.3491 24.713 17.3491C24.9306 17.3491 25.1393 17.2644 25.2932 17.1137C25.4471 16.963 25.5335 16.7586 25.5335 16.5454C25.5335 16.3323 25.4471 16.1279 25.2932 15.9772L20.9547 11.728C20.7278 11.5023 20.4237 11.3775 20.4237 11.3775C20.1196 11.2528 19.7899 11.2528 19.7899 11.2528C19.4603 11.2528 19.1561 11.3775 19.1561 11.3775C18.852 11.5023 18.6207 11.7323 18.6207 11.7323L16.5123 13.7973L16.5079 13.8017L11.9291 9.31705C11.7022 9.09135 11.3981 8.96664 11.3981 8.96664C11.094 8.84192 10.7643 8.84192 10.7643 8.84192C10.4346 8.84192 10.1305 8.96664 10.1305 8.96664C9.8264 9.09135 9.59507 9.32142 9.59507 9.32142L4.44083 14.3696C4.28695 14.5203 4.2002 14.725 4.2002 14.9382C4.2002 14.951 4.20051 14.9639 4.20114 14.9768C4.21094 15.1763 4.29628 15.3652 4.44052 15.5064C4.59439 15.6571 4.80309 15.7418 5.02071 15.7418C5.23832 15.7418 5.44702 15.6571 5.6009 15.5064L10.7643 10.4492L10.7687 10.4536L15.3387 14.9295C15.57 15.1595 15.8741 15.2843 15.8741 15.2843C16.1782 15.409 16.5079 15.409 16.5079 15.409C16.8376 15.409 17.1417 15.2843 17.1417 15.2843C17.4458 15.1595 17.6727 14.9338 17.6727 14.9338L19.7899 12.8601L19.7944 12.8645Z" fill="#0AC7E4"/>
<path d="M18.9694 8.10735C18.9694 8.77311 18.4183 9.31281 17.7387 9.31281C17.059 9.31281 16.5079 8.77311 16.5079 8.10735C16.5079 7.44159 17.059 6.9019 17.7387 6.9019C18.4183 6.9019 18.9694 7.44159 18.9694 8.10735Z" fill="#0AC7E4"/>
<ellipse cx="23.4" cy="19.7595" rx="6.4" ry="6.24" fill="#0AC7E4"/>
<path d="M20.2002 19.7598H26.6002" stroke="white" stroke-linecap="round"/>
<path d="M23.4004 16.6406L23.4004 22.8806" stroke="white" stroke-linecap="round"/>
</svg>
