<svg width="16" height="17" viewBox="0 0 16 17" fill="none" xmlns="http://www.w3.org/2000/svg">
<path d="M7.67598 1.92814L6.83598 1.4248L6.67598 2.3908C6.42131 3.91614 5.37931 5.33347 4.22998 6.32947C1.97998 8.28014 1.48731 10.4001 2.18398 12.1501C2.85064 13.8248 4.54264 14.9715 6.25998 15.1628L6.65731 15.2068C5.67464 14.6061 5.04398 13.2028 5.26398 12.1541C5.48131 11.1235 6.22264 10.1581 7.64664 9.26747L8.36464 8.81947L8.63264 9.6228C8.79064 10.0975 9.06398 10.4788 9.34198 10.8661C9.47531 11.0528 9.61064 11.2415 9.73464 11.4421C10.1633 12.1388 10.2766 12.9135 9.99998 13.6821C9.74798 14.3808 9.33264 14.9301 8.75998 15.2348L9.40664 15.1628C11.0186 14.9835 12.202 14.4321 12.9706 13.5101C13.7326 12.5961 14 11.4195 14 10.1668C14 9.00014 13.5206 7.79747 12.9553 6.7968C12.2926 5.6248 11.428 4.65147 10.484 3.70814C10.3206 4.0348 10.3333 4.1668 9.99731 4.69147C9.56098 3.53278 8.742 2.55786 7.67598 1.92814Z" fill="#ED7860"/>
</svg>
