<svg width="13" height="13" viewBox="0 0 13 13" fill="none" xmlns="http://www.w3.org/2000/svg">
<path d="M12 0.5H1.00002C0.734802 0.5 0.480448 0.605357 0.292911 0.792893C0.105375 0.98043 1.8109e-05 1.23478 1.8109e-05 1.5V11.5C-0.00113506 11.6907 0.0528098 11.8777 0.155368 12.0384C0.257927 12.1992 0.404734 12.3269 0.578143 12.4062C0.710286 12.4678 0.854252 12.4998 1.00002 12.5C1.23476 12.4994 1.46171 12.4157 1.64064 12.2638L1.64627 12.2594L3.68752 10.5H12C12.2652 10.5 12.5196 10.3946 12.7071 10.2071C12.8947 10.0196 13 9.76522 13 9.5V1.5C13 1.23478 12.8947 0.98043 12.7071 0.792893C12.5196 0.605357 12.2652 0.5 12 0.5ZM12 9.5H3.50002C3.37996 9.50006 3.26394 9.54332 3.17314 9.62187L1.00002 11.5V1.5H12V9.5Z" fill="#0AC7E4"/>
</svg>
