<svg width="13" height="16" viewBox="0 0 13 16" fill="none" xmlns="http://www.w3.org/2000/svg">
<path fill-rule="evenodd" clip-rule="evenodd" d="M6.21214 15.9351L6.21493 15.936C6.39786 16.0169 6.5 15.9981 6.5 15.9981C6.5 15.9981 6.60214 16.0169 6.786 15.936L6.78786 15.9351L6.79343 15.9322L6.81014 15.9247C6.89824 15.8831 6.98524 15.8392 7.07107 15.793C7.24379 15.7026 7.48521 15.5671 7.774 15.3855C8.34971 15.0241 9.11579 14.4764 9.88557 13.7245C11.4233 12.2226 13 9.87459 13 6.58745C13 5.72238 12.8319 4.86577 12.5052 4.06655C12.1786 3.26732 11.6998 2.54112 11.0962 1.92942C10.4926 1.31772 9.77606 0.832491 8.98744 0.50144C8.19883 0.170389 7.35359 0 6.5 0C5.64641 0 4.80117 0.170389 4.01256 0.50144C3.22394 0.832491 2.50739 1.31772 1.90381 1.92942C1.30023 2.54112 0.821439 3.26732 0.494783 4.06655C0.168128 4.86577 -1.27195e-08 5.72238 0 6.58745C0 9.87365 1.57671 12.2226 3.11536 13.7245C3.75942 14.3517 4.46687 14.9084 5.226 15.3855C5.52009 15.5703 5.82251 15.7411 6.13229 15.8974L6.18986 15.9247L6.20657 15.9322L6.21214 15.9351ZM6.5 8.70485C7.05411 8.70485 7.58553 8.48177 7.97735 8.08468C8.36916 7.68759 8.58929 7.14902 8.58929 6.58745C8.58929 6.02589 8.36916 5.48732 7.97735 5.09023C7.58553 4.69314 7.05411 4.47006 6.5 4.47006C5.94589 4.47006 5.41447 4.69314 5.02265 5.09023C4.63084 5.48732 4.41071 6.02589 4.41071 6.58745C4.41071 7.14902 4.63084 7.68759 5.02265 8.08468C5.41447 8.48177 5.94589 8.70485 6.5 8.70485Z" fill="#999999"/>
</svg>
