<svg width="24" height="25" viewBox="0 0 24 25" fill="none" xmlns="http://www.w3.org/2000/svg">
<path d="M11.4995 17.7417L6.8945 20.3406C6.69107 20.4619 6.47839 20.5138 6.25646 20.4965C6.03453 20.4792 5.84034 20.4099 5.67389 20.2886C5.50745 20.1673 5.37799 20.0159 5.28552 19.8343C5.19305 19.6528 5.17455 19.449 5.23004 19.2231L6.45065 14.3112L2.3727 11.0107C2.18776 10.8548 2.07236 10.677 2.02649 10.4774C1.98063 10.2778 1.99431 10.0831 2.06755 9.89319C2.14079 9.7033 2.25175 9.54737 2.40044 9.42539C2.54914 9.30342 2.75257 9.22545 3.01075 9.1915L8.39252 8.74969L10.4731 4.12373C10.5656 3.91582 10.7091 3.75989 10.9036 3.65593C11.0982 3.55198 11.2968 3.5 11.4995 3.5C11.7022 3.5 11.9008 3.55198 12.0954 3.65593C12.29 3.75989 12.4335 3.91582 12.5259 4.12373L14.6065 8.74969L19.9883 9.1915C20.2472 9.22615 20.4507 9.30411 20.5986 9.42539C20.7466 9.54667 20.8575 9.70261 20.9315 9.89319C21.0055 10.0838 21.0195 10.2789 20.9737 10.4785C20.9278 10.678 20.812 10.8555 20.6264 11.0107L16.5484 14.3112L17.769 19.2231C17.8245 19.4483 17.806 19.6521 17.7135 19.8343C17.6211 20.0166 17.4916 20.168 17.3252 20.2886C17.1587 20.4092 16.9645 20.4785 16.7426 20.4965C16.5207 20.5145 16.308 20.4626 16.1046 20.3406L11.4995 17.7417Z" fill="#FFD900"/>
</svg>
