<svg width="18" height="19" viewBox="0 0 18 19" fill="none" xmlns="http://www.w3.org/2000/svg">
<path fill-rule="evenodd" clip-rule="evenodd" d="M0.389404 3.88511C0.389404 2.77452 1.28972 1.87421 2.40031 1.87421H15.3785C16.4891 1.87421 17.3894 2.77452 17.3894 3.88511V16.4264C17.3894 17.537 16.4891 18.4373 15.3785 18.4373H2.40031C1.28972 18.4373 0.389404 17.537 0.389404 16.4264V3.88511ZM2.40031 3.21481C2.03011 3.21481 1.73001 3.51491 1.73001 3.88511V16.4264C1.73001 16.7966 2.03011 17.0967 2.40031 17.0967H15.3785C15.7487 17.0967 16.0488 16.7966 16.0488 16.4264V3.88511C16.0488 3.51491 15.7487 3.21481 15.3785 3.21481H2.40031Z" fill="#666666"/>
<path fill-rule="evenodd" clip-rule="evenodd" d="M4.41884 0.562622C4.78903 0.562622 5.08914 0.862726 5.08914 1.23292V3.42519C5.08914 3.79538 4.78903 4.09549 4.41884 4.09549C4.04864 4.09549 3.74854 3.79538 3.74854 3.42519V1.23292C3.74854 0.862726 4.04864 0.562622 4.41884 0.562622Z" fill="#666666"/>
<path fill-rule="evenodd" clip-rule="evenodd" d="M13.36 0.562622C13.7302 0.562622 14.0303 0.862726 14.0303 1.23292V3.42519C14.0303 3.79538 13.7302 4.09549 13.36 4.09549C12.9898 4.09549 12.6897 3.79538 12.6897 3.42519V1.23292C12.6897 0.862726 12.9898 0.562622 13.36 0.562622Z" fill="#666666"/>
<path fill-rule="evenodd" clip-rule="evenodd" d="M1.08496 5.03552H16.7194V6.37612H1.08496V5.03552Z" fill="#666666"/>
<path fill-rule="evenodd" clip-rule="evenodd" d="M3.52466 8.60701C3.52466 8.23681 3.72473 7.93671 3.97153 7.93671H4.86526C5.11206 7.93671 5.31213 8.23681 5.31213 8.60701C5.31213 8.9772 5.11206 9.27731 4.86526 9.27731H3.97153C3.72473 9.27731 3.52466 8.9772 3.52466 8.60701Z" fill="#999999"/>
<path fill-rule="evenodd" clip-rule="evenodd" d="M7.99341 8.60701C7.99341 8.23681 8.19348 7.93671 8.44028 7.93671H9.33401C9.58081 7.93671 9.78088 8.23681 9.78088 8.60701C9.78088 8.9772 9.58081 9.27731 9.33401 9.27731H8.44028C8.19348 9.27731 7.99341 8.9772 7.99341 8.60701Z" fill="#999999"/>
<path fill-rule="evenodd" clip-rule="evenodd" d="M12.4619 8.60701C12.4619 8.23681 12.662 7.93671 12.9088 7.93671H13.8025C14.0493 7.93671 14.2494 8.23681 14.2494 8.60701C14.2494 8.9772 14.0493 9.27731 13.8025 9.27731H12.9088C12.662 9.27731 12.4619 8.9772 12.4619 8.60701Z" fill="#999999"/>
<path fill-rule="evenodd" clip-rule="evenodd" d="M7.99341 11.7365C7.99341 11.3663 8.19348 11.0662 8.44028 11.0662H9.33401C9.58081 11.0662 9.78088 11.3663 9.78088 11.7365C9.78088 12.1067 9.58081 12.4068 9.33401 12.4068H8.44028C8.19348 12.4068 7.99341 12.1067 7.99341 11.7365Z" fill="#999999"/>
<path fill-rule="evenodd" clip-rule="evenodd" d="M3.52466 11.7365C3.52466 11.3663 3.72473 11.0662 3.97153 11.0662H4.86526C5.11206 11.0662 5.31213 11.3663 5.31213 11.7365C5.31213 12.1067 5.11206 12.4068 4.86526 12.4068H3.97153C3.72473 12.4068 3.52466 12.1067 3.52466 11.7365Z" fill="#999999"/>
<path fill-rule="evenodd" clip-rule="evenodd" d="M12.4619 11.7365C12.4619 11.3663 12.662 11.0662 12.9088 11.0662H13.8025C14.0493 11.0662 14.2494 11.3663 14.2494 11.7365C14.2494 12.1067 14.0493 12.4068 13.8025 12.4068H12.9088C12.662 12.4068 12.4619 12.1067 12.4619 11.7365Z" fill="#999999"/>
<path fill-rule="evenodd" clip-rule="evenodd" d="M7.99341 14.8659C7.99341 14.4957 8.19348 14.1956 8.44028 14.1956H9.33401C9.58081 14.1956 9.78088 14.4957 9.78088 14.8659C9.78088 15.2361 9.58081 15.5362 9.33401 15.5362H8.44028C8.19348 15.5362 7.99341 15.2361 7.99341 14.8659Z" fill="#999999"/>
<path fill-rule="evenodd" clip-rule="evenodd" d="M3.52466 14.8659C3.52466 14.4957 3.72473 14.1956 3.97153 14.1956H4.86526C5.11206 14.1956 5.31213 14.4957 5.31213 14.8659C5.31213 15.2361 5.11206 15.5362 4.86526 15.5362H3.97153C3.72473 15.5362 3.52466 15.2361 3.52466 14.8659Z" fill="#999999"/>
<path fill-rule="evenodd" clip-rule="evenodd" d="M12.4619 14.8659C12.4619 14.4957 12.662 14.1956 12.9088 14.1956H13.8025C14.0493 14.1956 14.2494 14.4957 14.2494 14.8659C14.2494 15.2361 14.0493 15.5362 13.8025 15.5362H12.9088C12.662 15.5362 12.4619 15.2361 12.4619 14.8659Z" fill="#999999"/>
</svg>
