<svg width="21" height="15" viewBox="0 0 21 15" fill="none" xmlns="http://www.w3.org/2000/svg">
<path fill-rule="evenodd" clip-rule="evenodd" d="M10.4448 1.55172C9.75447 1.55172 9.19482 2.13067 9.19482 2.84483C9.19482 3.55899 9.75447 4.13793 10.4448 4.13793C11.1352 4.13793 11.6948 3.55899 11.6948 2.84483C11.6948 2.13067 11.1352 1.55172 10.4448 1.55172ZM7.69482 2.84483C7.69482 1.27367 8.92604 0 10.4448 0C11.9636 0 13.1948 1.27367 13.1948 2.84483C13.1948 4.41598 11.9636 5.68966 10.4448 5.68966C8.92604 5.68966 7.69482 4.41598 7.69482 2.84483Z" fill="#666666"/>
<path fill-rule="evenodd" clip-rule="evenodd" d="M13.9448 4.91378C13.9448 6.3421 15.0641 7.49999 16.4448 7.49999C17.8255 7.49999 18.9448 6.3421 18.9448 4.91378C18.9448 3.48546 17.8255 2.32758 16.4448 2.32758C15.0641 2.32758 13.9448 3.48546 13.9448 4.91378ZM16.4448 5.94827C15.8925 5.94827 15.4448 5.48511 15.4448 4.91378C15.4448 4.34245 15.8925 3.8793 16.4448 3.8793C16.9971 3.8793 17.4448 4.34245 17.4448 4.91378C17.4448 5.48511 16.9971 5.94827 16.4448 5.94827Z" fill="#666666"/>
<path fill-rule="evenodd" clip-rule="evenodd" d="M2.03467 4.91378C2.03467 6.3421 3.15396 7.49999 4.53467 7.49999C5.91538 7.49999 7.03467 6.3421 7.03467 4.91378C7.03467 3.48546 5.91538 2.32758 4.53467 2.32758C3.15396 2.32758 2.03467 3.48546 2.03467 4.91378ZM4.53467 5.94827C3.98238 5.94827 3.53467 5.48511 3.53467 4.91378C3.53467 4.34245 3.98238 3.8793 4.53467 3.8793C5.08695 3.8793 5.53467 4.34245 5.53467 4.91378C5.53467 5.48511 5.08695 5.94827 4.53467 5.94827Z" fill="#666666"/>
<path fill-rule="evenodd" clip-rule="evenodd" d="M4.69482 11.1207C4.69482 8.97822 6.37376 7.24139 8.44482 7.24139H12.4448C14.5159 7.24139 16.1948 8.97822 16.1948 11.1207V13.1897C16.1948 14.1895 15.4113 15 14.4448 15H6.44482C5.47833 15 4.69482 14.1895 4.69482 13.1897V11.1207ZM8.44482 8.79312C7.20218 8.79312 6.19482 9.83521 6.19482 11.1207V13.1897C6.19482 13.3325 6.30675 13.4483 6.44482 13.4483H14.4448C14.5829 13.4483 14.6948 13.3325 14.6948 13.1897V11.1207C14.6948 9.83521 13.6875 8.79312 12.4448 8.79312H8.44482Z" fill="#666666"/>
<path fill-rule="evenodd" clip-rule="evenodd" d="M0.694824 11.1207C0.694824 10.1209 1.47833 9.31036 2.44482 9.31036H4.94482C5.35904 9.31036 5.69482 9.65773 5.69482 10.0862C5.69482 10.5147 5.35904 10.8621 4.94482 10.8621H2.44482C2.30675 10.8621 2.19482 10.9779 2.19482 11.1207V13.1897C2.19482 13.3325 2.30675 13.4483 2.44482 13.4483H10.4448C10.859 13.4483 11.1948 13.7957 11.1948 14.2242C11.1948 14.6527 10.859 15 10.4448 15H2.44482C1.47833 15 0.694824 14.1895 0.694824 13.1897V11.1207Z" fill="#666666"/>
<path fill-rule="evenodd" clip-rule="evenodd" d="M20.1948 11.1207C20.1948 10.1209 19.4113 9.31036 18.4448 9.31036H15.9448C15.5306 9.31036 15.1948 9.65773 15.1948 10.0862C15.1948 10.5147 15.5306 10.8621 15.9448 10.8621H18.4448C18.5829 10.8621 18.6948 10.9779 18.6948 11.1207V13.1897C18.6948 13.3325 18.5829 13.4483 18.4448 13.4483H10.4448C10.0306 13.4483 9.69482 13.7957 9.69482 14.2242C9.69482 14.6527 10.0306 15 10.4448 15H18.4448C19.4113 15 20.1948 14.1895 20.1948 13.1897V11.1207Z" fill="#666666"/>
</svg>
