<svg width="19" height="19" viewBox="0 0 19 19" fill="none" xmlns="http://www.w3.org/2000/svg">
<path d="M9.29199 17.6681V4.07789M9.29199 17.6681C9.29199 18.0857 8.78034 18.3064 8.45399 18.0459C6.36269 16.3766 4.01131 15.7761 1.28061 15.7973C1.01361 15.7993 0.791992 15.5861 0.791992 15.3191V1.34243C0.791992 1.09897 0.977578 0.894545 1.22046 0.877707C4.39363 0.657733 6.92949 1.4318 9.16364 3.75631C9.24646 3.84248 9.29199 3.95838 9.29199 4.07789M9.29199 17.6681C9.29199 18.0857 9.80364 18.3064 10.13 18.0459C12.2213 16.3766 14.5727 15.7761 17.3034 15.7973C17.5704 15.7993 17.792 15.5861 17.792 15.3191V1.34243C17.792 1.09897 17.6064 0.894545 17.3635 0.877707C14.1904 0.657733 11.6545 1.4318 9.42034 3.75631C9.33752 3.84248 9.29199 3.95838 9.29199 4.07789M15.9031 9.34871C14.0602 9.27834 12.2818 9.91483 11.1813 10.8444M15.9031 11.9837C14.0602 11.9134 12.5238 12.3801 11.1809 13.8658M6.93088 7.68762V5.36749C6.93088 5.23925 6.87894 5.1158 6.78464 5.02889C5.81553 4.13563 4.89038 3.70152 3.60302 3.67641C3.35114 3.6715 3.1531 3.88144 3.1531 4.13337V6.56781C3.1531 6.83176 3.37052 7.04149 3.63232 7.07519C4.44358 7.17964 5.21275 7.57275 5.84589 8.10217C6.21033 8.4069 6.93088 8.16267 6.93088 7.68762Z" stroke="#666666" stroke-width="1.2" stroke-linecap="round"/>
</svg>
