<svg width="18" height="19" viewBox="0 0 18 19" fill="none" xmlns="http://www.w3.org/2000/svg">
<path fill-rule="evenodd" clip-rule="evenodd" d="M8.98408 1.02416C9.6675 0.340743 10.7755 0.340741 11.459 1.02416L17.4742 7.03941C18.1576 7.72283 18.1576 8.83087 17.4742 9.51429L16.1196 10.8689C15.4362 11.5523 14.3282 11.5523 13.6448 10.8689L7.62951 4.85361C6.94609 4.17019 6.94609 3.06215 7.62951 2.37874L8.98408 1.02416ZM10.3983 2.08482C10.3007 1.98719 10.1424 1.98719 10.0447 2.08482L8.69017 3.4394C8.59254 3.53703 8.59254 3.69532 8.69017 3.79295L14.7054 9.8082C14.8031 9.90583 14.9613 9.90584 15.059 9.8082L16.4136 8.45363C16.5112 8.356 16.5112 8.19771 16.4136 8.10008L10.3983 2.08482Z" fill="#666666"/>
<path fill-rule="evenodd" clip-rule="evenodd" d="M8.30596 5.31284C8.99661 4.88411 9.89155 4.98741 10.4664 5.56222L12.924 8.01982C13.4988 8.59463 13.6021 9.48957 13.1733 10.1802L10.8199 13.9714C10.7942 14.0128 10.7812 14.0608 10.7824 14.1096L10.838 16.3142C10.8778 17.8941 8.96866 18.7133 7.85111 17.5957L0.890446 10.6351C-0.227098 9.51753 0.592052 7.60835 2.172 7.64819L4.37662 7.70379C4.42534 7.70501 4.47336 7.69197 4.51477 7.66627L8.30596 5.31284ZM9.4057 6.62288C9.32358 6.54076 9.19573 6.52601 9.09707 6.58725L5.30588 8.94069C5.01602 9.12063 4.67987 9.21191 4.3388 9.20331L2.13418 9.14772C1.90848 9.14202 1.79146 9.41476 1.95111 9.57441L8.91177 16.5351C9.07142 16.6947 9.34416 16.5777 9.33847 16.352L9.28287 14.1474C9.27427 13.8063 9.36556 13.4702 9.5455 13.1803L11.8989 9.38911C11.9602 9.29045 11.9454 9.1626 11.8633 9.08048L9.4057 6.62288Z" fill="#666666"/>
<path fill-rule="evenodd" clip-rule="evenodd" d="M5.43351 13.0548C5.72641 13.3477 5.72641 13.8226 5.43351 14.1155L1.28033 18.2687C0.987437 18.5616 0.512563 18.5616 0.21967 18.2687C-0.0732233 17.9758 -0.0732234 17.5009 0.21967 17.208L4.37285 13.0548C4.66575 12.7619 5.14062 12.7619 5.43351 13.0548Z" fill="#666666"/>
</svg>
