<svg width="18" height="18" viewBox="0 0 18 18" fill="none" xmlns="http://www.w3.org/2000/svg">
<path fill-rule="evenodd" clip-rule="evenodd" d="M7.95643 2.33838C4.80486 2.33838 2.25 4.89324 2.25 8.04482C2.25 11.1964 4.80486 13.7513 7.95643 13.7513C11.108 13.7513 13.6629 11.1964 13.6629 8.04482C13.6629 4.89324 11.108 2.33838 7.95643 2.33838ZM0.75 8.04482C0.75 4.06481 3.97643 0.838379 7.95643 0.838379C11.9364 0.838379 15.1629 4.06481 15.1629 8.04482C15.1629 12.0248 11.9364 15.2513 7.95643 15.2513C3.97643 15.2513 0.75 12.0248 0.75 8.04482Z" fill="#666666"/>
<path fill-rule="evenodd" clip-rule="evenodd" d="M12.1926 12.1044C12.4855 11.8115 12.9603 11.8115 13.2532 12.1044L17.0303 15.8815C17.3232 16.1744 17.3232 16.6493 17.0303 16.9422C16.7374 17.2351 16.2626 17.2351 15.9697 16.9422L12.1926 13.1651C11.8997 12.8722 11.8997 12.3973 12.1926 12.1044Z" fill="#666666"/>
</svg>
