<svg width="19" height="19" viewBox="0 0 19 19" fill="none" xmlns="http://www.w3.org/2000/svg">
<path fill-rule="evenodd" clip-rule="evenodd" d="M9.09741 1.88462C4.89155 1.88462 1.48203 5.29414 1.48203 9.5C1.48203 13.7059 4.89155 17.1154 9.09741 17.1154C13.3033 17.1154 16.7128 13.7059 16.7128 9.5C16.7128 5.29414 13.3033 1.88462 9.09741 1.88462ZM0.0974121 9.5C0.0974121 4.52944 4.12685 0.5 9.09741 0.5C14.068 0.5 18.0974 4.52944 18.0974 9.5C18.0974 14.4706 14.068 18.5 9.09741 18.5C4.12685 18.5 0.0974121 14.4706 0.0974121 9.5Z" fill="#666666"/>
<path fill-rule="evenodd" clip-rule="evenodd" d="M11.4664 11.9097C12.1084 11.5245 12.656 10.934 13.1022 10.0974C13.2821 9.76006 13.7014 9.63243 14.0388 9.81236C14.3762 9.99229 14.5038 10.4116 14.3239 10.749C13.7809 11.7671 13.0717 12.5612 12.1788 13.097C11.2859 13.6327 10.2515 13.8848 9.09762 13.8848C7.94377 13.8848 6.90935 13.6327 6.01644 13.097C5.12353 12.5612 4.41437 11.7671 3.87138 10.749C3.69145 10.4116 3.81908 9.99229 4.15645 9.81236C4.49382 9.63243 4.91317 9.76006 5.0931 10.0974C5.53927 10.934 6.08682 11.5245 6.72882 11.9097C7.37082 12.2949 8.14951 12.5001 9.09762 12.5001C10.0457 12.5001 10.8244 12.2949 11.4664 11.9097Z" fill="#666666"/>
<path d="M7.25118 7.65385C7.25118 8.16365 6.83791 8.57693 6.32811 8.57693C5.8183 8.57693 5.40503 8.16365 5.40503 7.65385C5.40503 7.14405 5.8183 6.73077 6.32811 6.73077C6.83791 6.73077 7.25118 7.14405 7.25118 7.65385Z" fill="#666666"/>
<path d="M12.7898 7.65385C12.7898 8.16365 12.3765 8.57693 11.8667 8.57693C11.3569 8.57693 10.9436 8.16365 10.9436 7.65385C10.9436 7.14405 11.3569 6.73077 11.8667 6.73077C12.3765 6.73077 12.7898 7.14405 12.7898 7.65385Z" fill="#666666"/>
</svg>
